<?xml version="1.0" encoding="UTF-8"?>
<!DOCTYPE svg PUBLIC "-//W3C//DTD SVG 1.1//EN" "http://www.w3.org/Graphics/SVG/1.1/DTD/svg11.dtd">
<svg xmlns="http://www.w3.org/2000/svg" version="1.1" width="856px" height="856px" style="shape-rendering:geometricPrecision; text-rendering:geometricPrecision; image-rendering:optimizeQuality; fill-rule:evenodd; clip-rule:evenodd" xmlns:xlink="http://www.w3.org/1999/xlink">
<g><path style="opacity:0.007" fill="#fdfdfd" d="M 319.5,120.5 C 281.5,120.5 243.5,120.5 205.5,120.5C 206.952,119.698 208.618,119.198 210.5,119C 247.01,118.305 283.343,118.805 319.5,120.5 Z"/></g>
<g><path style="opacity:0.409" fill="#b8b8b8" d="M 539.5,120.5 C 577.835,120.333 616.168,120.5 654.5,121C 667.128,123.494 679.128,127.827 690.5,134C 691.252,134.671 691.586,135.504 691.5,136.5C 678.076,128.14 663.409,123.473 647.5,122.5C 499.627,121.169 351.627,121.169 203.5,122.5C 203.833,121.833 204.167,121.167 204.5,120.5C 204.833,120.5 205.167,120.5 205.5,120.5C 243.5,120.5 281.5,120.5 319.5,120.5C 392.836,119.293 466.169,119.293 539.5,120.5 Z"/></g>
<g><path style="opacity:0.83" fill="#3c3c3c" d="M 647.5,122.5 C 499.145,122.173 350.812,122.506 202.5,123.5C 202.5,122.833 202.833,122.5 203.5,122.5C 351.627,121.169 499.627,121.169 647.5,122.5 Z"/></g>
<g><path style="opacity:1" fill="#000000" d="M 647.5,122.5 C 663.409,123.473 678.076,128.14 691.5,136.5C 695.865,140.189 700.531,143.522 705.5,146.5C 721.007,160.178 732.007,176.844 738.5,196.5C 738.848,200.557 739.514,204.557 740.5,208.5C 741.473,242.809 741.806,277.142 741.5,311.5C 741.5,405.167 741.5,498.833 741.5,592.5C 740.398,598.778 739.398,605.112 738.5,611.5C 738.5,611.833 738.5,612.167 738.5,612.5C 736.416,615.801 735.082,619.468 734.5,623.5C 732.58,627.789 730.58,632.123 728.5,636.5C 726.533,639.477 724.533,642.477 722.5,645.5C 717.233,652.106 711.566,658.439 705.5,664.5C 701.854,666.817 698.52,669.484 695.5,672.5C 693.463,673.846 691.463,675.18 689.5,676.5C 686.515,677.326 683.849,678.659 681.5,680.5C 675.519,682.551 669.519,684.717 663.5,687C 660.207,687.826 656.874,688.326 653.5,688.5C 504.028,688.295 354.694,688.295 205.5,688.5C 201.193,687.673 196.86,687.007 192.5,686.5C 163.016,676.345 141.349,657.345 127.5,629.5C 126.971,627.216 125.971,625.216 124.5,623.5C 122.636,617.02 120.636,610.686 118.5,604.5C 118.048,600.837 117.548,597.17 117,593.5C 116.333,467.5 116.333,341.5 117,215.5C 118.062,209.457 119.229,203.457 120.5,197.5C 122.733,194.61 124.066,191.277 124.5,187.5C 127.147,182.205 129.814,176.872 132.5,171.5C 141.792,157.875 153.125,146.208 166.5,136.5C 166.833,136.5 167.167,136.5 167.5,136.5C 173.983,132.655 180.649,129.322 187.5,126.5C 192.466,125.373 197.466,124.373 202.5,123.5C 350.812,122.506 499.145,122.173 647.5,122.5 Z M 573.5,345.5 C 584.427,345.932 595.094,347.766 605.5,351C 612.223,354.885 618.223,359.718 623.5,365.5C 624.87,368.485 624.37,371.151 622,373.5C 613.212,369.415 604.379,365.249 595.5,361C 586.756,357.883 577.756,356.883 568.5,358C 563.624,359.636 558.624,360.802 553.5,361.5C 550.275,361.727 548.775,360.394 549,357.5C 555.795,350.5 563.962,346.5 573.5,345.5 Z M 268.5,346.5 C 279.451,347.894 290.451,349.061 301.5,350C 304.003,350.129 306.003,351.129 307.5,353C 306.833,353.667 306.167,354.333 305.5,355C 293.27,353.938 281.27,354.938 269.5,358C 261.997,362.397 254.164,366.23 246,369.5C 243.836,369.334 242.669,368.167 242.5,366C 243.427,361.313 245.761,357.479 249.5,354.5C 255.934,351.808 262.267,349.141 268.5,346.5 Z M 567.5,491.5 C 567.167,491.5 566.833,491.5 566.5,491.5C 562.298,490.001 557.965,488.501 553.5,487C 549.411,483.905 545.077,481.239 540.5,479C 538.511,476.044 536.344,473.211 534,470.5C 533.456,468.155 534.456,466.821 537,466.5C 541.073,466.773 544.573,468.273 547.5,471C 569.225,478.891 590.225,477.558 610.5,467C 617.667,461.167 624.167,454.667 630,447.5C 633.03,452.057 634.03,457.057 633,462.5C 621.723,478.729 606.223,488.229 586.5,491C 580.175,491.5 573.842,491.666 567.5,491.5 Z M 322.5,461.5 C 324.792,461.244 326.959,461.577 329,462.5C 330.943,465.199 331.276,467.866 330,470.5C 308.902,491.244 284.735,495.744 257.5,484C 254.01,481.089 250.344,478.422 246.5,476C 247.167,475.333 247.833,474.667 248.5,474C 252.421,473.797 256.255,473.297 260,472.5C 268.431,476.309 277.265,477.809 286.5,477C 294.325,475.614 301.992,473.614 309.5,471C 314.555,468.772 318.889,465.605 322.5,461.5 Z M 678.5,530.5 C 689.465,538.994 696.132,550.161 698.5,564C 697.697,569.38 696.364,574.546 694.5,579.5C 692.218,582.643 690.052,585.977 688,589.5C 669.324,608.676 650.824,628.009 632.5,647.5C 629.101,649.388 626.101,651.888 623.5,655C 614.789,658.875 605.789,659.542 596.5,657C 591.628,655.897 586.962,654.23 582.5,652C 575.1,643.93 567.1,636.596 558.5,630C 545.523,614.56 541.19,596.893 545.5,577C 548.718,573.785 551.552,570.285 554,566.5C 557.79,564.046 561.29,561.212 564.5,558C 568.146,557.644 571.646,556.811 575,555.5C 580.356,556.99 585.856,557.823 591.5,558C 595.798,563.142 601.132,566.142 607.5,567C 611.115,563.381 613.949,559.214 616,554.5C 620.731,549.938 625.231,545.271 629.5,540.5C 636.512,533.663 644.679,528.663 654,525.5C 659.128,526.259 664.295,526.759 669.5,527C 672.647,527.881 675.647,529.047 678.5,530.5 Z"/></g>
<g><path style="opacity:0.012" fill="#e9e9e9" d="M 204.5,120.5 C 204.167,121.167 203.833,121.833 203.5,122.5C 202.833,122.5 202.5,122.833 202.5,123.5C 197.466,124.373 192.466,125.373 187.5,126.5C 184.482,126.704 181.482,127.037 178.5,127.5C 183.712,125.031 189.046,122.864 194.5,121C 197.817,120.502 201.15,120.335 204.5,120.5 Z"/></g>
<g><path style="opacity:0.431" fill="#b1b1b1" d="M 187.5,126.5 C 180.649,129.322 173.983,132.655 167.5,136.5C 167.511,134.983 168.177,133.816 169.5,133C 172.257,132.062 174.59,130.562 176.5,128.5C 176.842,127.662 177.508,127.328 178.5,127.5C 181.482,127.037 184.482,126.704 187.5,126.5 Z"/></g>
<g><path style="opacity:0.011" fill="#f4f4f4" d="M 176.5,128.5 C 174.59,130.562 172.257,132.062 169.5,133C 168.177,133.816 167.511,134.983 167.5,136.5C 167.167,136.5 166.833,136.5 166.5,136.5C 154.398,143.089 144.231,152.089 136,163.5C 134.546,166.071 133.38,168.738 132.5,171.5C 131.202,172.116 130.202,172.116 129.5,171.5C 132.775,163.805 137.442,156.971 143.5,151C 150.925,143.905 158.925,137.572 167.5,132C 170.309,130.259 173.309,129.092 176.5,128.5 Z"/></g>
<g><path style="opacity:0.698" fill="#a1a1a1" d="M 691.5,136.5 C 695.046,137.606 698.379,139.273 701.5,141.5C 703.611,142.605 704.945,144.271 705.5,146.5C 700.531,143.522 695.865,140.189 691.5,136.5 Z"/></g>
<g><path style="opacity:0.769" fill="#a9a9a9" d="M 166.5,136.5 C 153.125,146.208 141.792,157.875 132.5,171.5C 133.38,168.738 134.546,166.071 136,163.5C 144.231,152.089 154.398,143.089 166.5,136.5 Z"/></g>
<g><path style="opacity:0.486" fill="#a6a6a6" d="M 705.5,146.5 C 706.552,146.351 707.552,146.517 708.5,147C 724.169,160.147 734.169,176.647 738.5,196.5C 732.007,176.844 721.007,160.178 705.5,146.5 Z"/></g>
<g><path style="opacity:0.169" fill="#c6c6c6" d="M 129.5,171.5 C 130.202,172.116 131.202,172.116 132.5,171.5C 129.814,176.872 127.147,182.205 124.5,187.5C 124.833,184.833 125.167,182.167 125.5,179.5C 125.794,176.246 127.127,173.579 129.5,171.5 Z"/></g>
<g><path style="opacity:0.011" fill="#f0f0f0" d="M 744.5,430.5 C 744.5,462.833 744.5,495.167 744.5,527.5C 743.833,518.167 743.167,508.833 742.5,499.5C 742.797,411.331 742.797,323.331 742.5,235.5C 742.666,227.16 742.5,218.827 742,210.5C 741.722,209.584 741.222,208.918 740.5,208.5C 739.514,204.557 738.848,200.557 738.5,196.5C 734.169,176.647 724.169,160.147 708.5,147C 707.552,146.517 706.552,146.351 705.5,146.5C 704.945,144.271 703.611,142.605 701.5,141.5C 698.379,139.273 695.046,137.606 691.5,136.5C 691.586,135.504 691.252,134.671 690.5,134C 679.128,127.827 667.128,123.494 654.5,121C 616.168,120.5 577.835,120.333 539.5,120.5C 571.167,119.674 603,119.007 635,118.5C 667.637,117.433 695.137,128.766 717.5,152.5C 727.603,162.791 735.103,174.791 740,188.5C 742.542,200.04 744.208,211.707 745,223.5C 745.689,245.496 746.189,267.496 746.5,289.5C 745.622,336.498 744.955,383.498 744.5,430.5 Z"/></g>
<g><path style="opacity:0.571" fill="#a4a4a4" d="M 124.5,187.5 C 124.066,191.277 122.733,194.61 120.5,197.5C 120.248,193.361 121.582,190.028 124.5,187.5 Z"/></g>
<g><path style="opacity:0.701" fill="#6b6b6b" d="M 740.5,208.5 C 741.222,208.918 741.722,209.584 742,210.5C 742.5,218.827 742.666,227.16 742.5,235.5C 742.831,261.005 742.498,286.339 741.5,311.5C 741.806,277.142 741.473,242.809 740.5,208.5 Z"/></g>
<g><path style="opacity:0.999" fill="#010101" d="M 773.5,327.5 C 797.16,329.84 812.826,342.173 820.5,364.5C 820.5,365.833 820.5,367.167 820.5,368.5C 820.801,411.85 820.468,455.184 819.5,498.5C 817.235,506.365 813.401,513.365 808,519.5C 803.219,524.129 798.052,528.129 792.5,531.5C 788.009,533.41 783.343,534.743 778.5,535.5C 774.486,535.666 770.486,535.499 766.5,535C 765.934,534.005 765.267,533.172 764.5,532.5C 764.5,464.167 764.5,395.833 764.5,327.5C 767.5,327.5 770.5,327.5 773.5,327.5 Z"/></g>
<g><path style="opacity:0.569" fill="#a4a4a4" d="M 763.5,326.5 C 790.628,323.152 809.461,334.152 820,359.5C 820.494,361.134 820.66,362.801 820.5,364.5C 812.826,342.173 797.16,329.84 773.5,327.5C 770.375,326.521 767.042,326.187 763.5,326.5 Z"/></g>
<g><path style="opacity:0.46" fill="#8f8f8f" d="M 609.5,348.5 C 609.167,348.5 608.833,348.5 608.5,348.5C 600.923,346.451 593.256,344.617 585.5,343C 577.805,342.309 570.139,342.475 562.5,343.5C 578.799,339.662 594.465,341.329 609.5,348.5 Z"/></g>
<g><path style="opacity:0.118" fill="#bfbfbf" d="M 299.5,344.5 C 287.827,343.344 276.16,343.344 264.5,344.5C 276.147,340.623 287.814,340.623 299.5,344.5 Z"/></g>
<g><path style="opacity:0.011" fill="#f6f6f6" d="M 299.5,344.5 C 300.167,344.5 300.833,344.5 301.5,344.5C 301.611,345.117 301.944,345.617 302.5,346C 307.204,347.624 311.871,349.124 316.5,350.5C 316.833,350.5 317.167,350.5 317.5,350.5C 317.82,353.898 317.487,357.232 316.5,360.5C 313.077,361.64 309.744,362.974 306.5,364.5C 302.325,362.936 297.992,362.269 293.5,362.5C 277.234,359.615 262.568,362.949 249.5,372.5C 245.055,372.292 241.388,370.459 238.5,367C 239.536,364.226 240.369,361.393 241,358.5C 243.04,356.63 244.873,354.63 246.5,352.5C 252.332,349.837 257.999,347.17 263.5,344.5C 263.833,344.5 264.167,344.5 264.5,344.5C 276.16,343.344 287.827,343.344 299.5,344.5 Z M 268.5,346.5 C 262.267,349.141 255.934,351.808 249.5,354.5C 245.761,357.479 243.427,361.313 242.5,366C 242.669,368.167 243.836,369.334 246,369.5C 254.164,366.23 261.997,362.397 269.5,358C 281.27,354.938 293.27,353.938 305.5,355C 306.167,354.333 306.833,353.667 307.5,353C 306.003,351.129 304.003,350.129 301.5,350C 290.451,349.061 279.451,347.894 268.5,346.5 Z"/></g>
<g><path style="opacity:0.01" fill="#f4f4f4" d="M 608.5,348.5 C 608.721,349.735 609.388,350.735 610.5,351.5C 616.336,353.684 621.67,356.684 626.5,360.5C 626.833,360.5 627.167,360.5 627.5,360.5C 630.186,365.161 631.019,370.161 630,375.5C 626.418,376.746 623.751,379.08 622,382.5C 619.021,380.356 616.188,378.022 613.5,375.5C 611.978,374.438 610.312,373.771 608.5,373.5C 606.421,370.099 603.421,367.766 599.5,366.5C 583.093,359.426 567.093,360.093 551.5,368.5C 548.518,368.037 545.518,367.704 542.5,367.5C 541.655,364.174 541.155,360.84 541,357.5C 541.557,355.385 542.391,353.385 543.5,351.5C 545.184,350.85 546.517,349.85 547.5,348.5C 549.199,348.66 550.866,348.494 552.5,348C 554.97,346.979 557.304,345.812 559.5,344.5C 560.209,343.596 561.209,343.263 562.5,343.5C 570.139,342.475 577.805,342.309 585.5,343C 593.256,344.617 600.923,346.451 608.5,348.5 Z M 573.5,345.5 C 563.962,346.5 555.795,350.5 549,357.5C 548.775,360.394 550.275,361.727 553.5,361.5C 558.624,360.802 563.624,359.636 568.5,358C 577.756,356.883 586.756,357.883 595.5,361C 604.379,365.249 613.212,369.415 622,373.5C 624.37,371.151 624.87,368.485 623.5,365.5C 618.223,359.718 612.223,354.885 605.5,351C 595.094,347.766 584.427,345.932 573.5,345.5 Z"/></g>
<g><path style="opacity:0.373" fill="#a4a4a4" d="M 301.5,344.5 C 307.043,345.343 312.043,347.343 316.5,350.5C 311.871,349.124 307.204,347.624 302.5,346C 301.944,345.617 301.611,345.117 301.5,344.5 Z"/></g>
<g><path style="opacity:0.4" fill="#959595" d="M 559.5,344.5 C 557.304,345.812 554.97,346.979 552.5,348C 550.866,348.494 549.199,348.66 547.5,348.5C 551.085,346.194 555.085,344.861 559.5,344.5 Z"/></g>
<g><path style="opacity:0.18" fill="#bababa" d="M 608.5,348.5 C 608.833,348.5 609.167,348.5 609.5,348.5C 616.044,351.271 621.71,355.271 626.5,360.5C 621.67,356.684 616.336,353.684 610.5,351.5C 609.388,350.735 608.721,349.735 608.5,348.5 Z"/></g>
<g><path style="opacity:0.598" fill="#7f7f7f" d="M 742.5,235.5 C 742.797,323.331 742.797,411.331 742.5,499.5C 742.831,530.671 742.498,561.671 741.5,592.5C 741.5,498.833 741.5,405.167 741.5,311.5C 742.498,286.339 742.831,261.005 742.5,235.5 Z"/></g>
<g><path style="opacity:0.451" fill="#a5a5a5" d="M 263.5,344.5 C 257.999,347.17 252.332,349.837 246.5,352.5C 243.067,354.417 239.734,356.584 236.5,359C 235.833,360.667 235.167,362.333 234.5,364C 231.733,365.083 229.067,366.25 226.5,367.5C 236.059,355.256 248.392,347.59 263.5,344.5 Z"/></g>
<g><path style="opacity:0.998" fill="#f9f9f9" d="M 335.5,363.5 C 359.985,390.567 364.318,420.567 348.5,453.5C 346.028,453.367 343.361,453.2 340.5,453C 334.237,448.855 331.904,443.022 333.5,435.5C 338.436,417.103 335.603,400.103 325,384.5C 320.57,378.54 315.07,373.874 308.5,370.5C 308.833,369.833 309.167,369.167 309.5,368.5C 313.92,366.44 317.92,363.606 321.5,360C 324.383,358.249 326.716,358.582 328.5,361C 329.833,361.333 331.167,361.667 332.5,362C 330.099,362.805 330.266,363.638 333,364.5C 333.671,363.748 334.504,363.414 335.5,363.5 Z"/></g>
<g><path style="opacity:0.729" fill="#c9c9c9" d="M 547.5,348.5 C 546.517,349.85 545.184,350.85 543.5,351.5C 542.391,353.385 541.557,355.385 541,357.5C 541.155,360.84 541.655,364.174 542.5,367.5C 545.518,367.704 548.518,368.037 551.5,368.5C 551.833,369.167 552.167,369.833 552.5,370.5C 549.328,372.252 546.328,374.252 543.5,376.5C 542.651,370.967 540.317,366.134 536.5,362C 533.112,361.341 529.779,361.508 526.5,362.5C 532.321,356.088 539.321,351.421 547.5,348.5 Z"/></g>
<g><path style="opacity:0.997" fill="#f9f9f9" d="M 543.5,376.5 C 521.616,396.715 517.616,420.049 531.5,446.5C 531.67,447.822 531.337,448.989 530.5,450C 531.308,450.308 531.975,450.808 532.5,451.5C 532.521,455.943 531.188,460.109 528.5,464C 525.854,464.497 523.187,464.664 520.5,464.5C 520.716,462.319 519.883,460.653 518,459.5C 517.722,460.416 517.222,461.082 516.5,461.5C 501.769,440.779 498.269,418.112 506,393.5C 510.703,381.654 517.536,371.321 526.5,362.5C 529.779,361.508 533.112,361.341 536.5,362C 540.317,366.134 542.651,370.967 543.5,376.5 Z"/></g>
<g><path style="opacity:0.52" fill="#b0b0b0" d="M 293.5,362.5 C 299.052,363.889 304.385,365.889 309.5,368.5C 309.167,369.167 308.833,369.833 308.5,370.5C 290.783,362.393 273.116,362.559 255.5,371C 251.958,373.266 248.625,375.766 245.5,378.5C 245.389,377.883 245.056,377.383 244.5,377C 246.24,375.483 247.906,373.983 249.5,372.5C 262.568,362.949 277.234,359.615 293.5,362.5 Z"/></g>
<g><path style="opacity:1" fill="#020202" d="M 308.5,370.5 C 315.07,373.874 320.57,378.54 325,384.5C 335.603,400.103 338.436,417.103 333.5,435.5C 332.659,437.812 331.659,440.145 330.5,442.5C 326.998,448.153 322.998,453.486 318.5,458.5C 316.5,460.167 314.5,461.833 312.5,463.5C 306.573,467.13 300.573,470.13 294.5,472.5C 277.9,475.014 262.9,471.347 249.5,461.5C 247.167,459.5 244.833,457.5 242.5,455.5C 223.039,431.275 222.706,406.942 241.5,382.5C 243.167,381.5 244.5,380.167 245.5,378.5C 248.625,375.766 251.958,373.266 255.5,371C 273.116,362.559 290.783,362.393 308.5,370.5 Z"/></g>
<g><path style="opacity:0.463" fill="#d1d1d1" d="M 317.5,350.5 C 324.215,353.856 330.215,358.19 335.5,363.5C 334.504,363.414 333.671,363.748 333,364.5C 330.266,363.638 330.099,362.805 332.5,362C 331.167,361.667 329.833,361.333 328.5,361C 326.716,358.582 324.383,358.249 321.5,360C 317.92,363.606 313.92,366.44 309.5,368.5C 304.385,365.889 299.052,363.889 293.5,362.5C 297.992,362.269 302.325,362.936 306.5,364.5C 309.744,362.974 313.077,361.64 316.5,360.5C 317.487,357.232 317.82,353.898 317.5,350.5 Z"/></g>
<g><path style="opacity:1" fill="#020202" d="M 608.5,373.5 C 614.919,378.582 620.252,384.582 624.5,391.5C 627.423,397.19 629.423,403.19 630.5,409.5C 632.589,423.27 629.923,435.937 622.5,447.5C 607.857,467.43 588.191,475.43 563.5,471.5C 554.528,468.222 546.528,463.222 539.5,456.5C 536.453,453.455 533.787,450.122 531.5,446.5C 517.616,420.049 521.616,396.715 543.5,376.5C 546.328,374.252 549.328,372.252 552.5,370.5C 571.739,360.569 590.406,361.569 608.5,373.5 Z"/></g>
<g><path style="opacity:0.094" fill="#e8e8e8" d="M 125.5,179.5 C 125.167,182.167 124.833,184.833 124.5,187.5C 121.582,190.028 120.248,193.361 120.5,197.5C 119.229,203.457 118.062,209.457 117,215.5C 116.333,341.5 116.333,467.5 117,593.5C 117.548,597.17 118.048,600.837 118.5,604.5C 118.544,609.347 119.377,614.013 121,618.5C 121.737,620.596 122.903,622.263 124.5,623.5C 124.455,626.077 125.455,628.077 127.5,629.5C 141.349,657.345 163.016,676.345 192.5,686.5C 192.611,687.117 192.944,687.617 193.5,688C 196.623,688.206 199.623,688.873 202.5,690C 205.482,690.498 208.482,690.665 211.5,690.5C 212.167,691.167 212.833,691.833 213.5,692.5C 197.398,691.92 182.398,687.754 168.5,680C 159.377,673.212 150.544,666.046 142,658.5C 137.305,652.478 132.639,646.478 128,640.5C 125.786,634.62 123.12,628.953 120,623.5C 116.843,612.716 114.843,601.716 114,590.5C 114.137,465.835 114.471,341.168 115,216.5C 115.429,208.024 116.762,199.69 119,191.5C 120.433,186.958 122.6,182.958 125.5,179.5 Z"/></g>
<g><path style="opacity:0.404" fill="#aeaeae" d="M 608.5,373.5 C 590.406,361.569 571.739,360.569 552.5,370.5C 552.167,369.833 551.833,369.167 551.5,368.5C 567.093,360.093 583.093,359.426 599.5,366.5C 603.421,367.766 606.421,370.099 608.5,373.5 Z"/></g>
<g><path style="opacity:0.011" fill="#f9f9f9" d="M 823.5,493.5 C 823.832,451.997 823.499,410.663 822.5,369.5C 822.598,367.447 821.931,365.78 820.5,364.5C 820.66,362.801 820.494,361.134 820,359.5C 809.461,334.152 790.628,323.152 763.5,326.5C 762.527,328.948 762.194,331.615 762.5,334.5C 760.16,330.983 760.16,327.483 762.5,324C 789.686,320.177 809.186,330.677 821,355.5C 823.751,363.252 825.084,371.252 825,379.5C 825.349,411.364 825.516,443.197 825.5,475C 825.63,481.399 824.963,487.566 823.5,493.5 Z"/></g>
<g><path style="opacity:0.998" fill="#f9f9f9" d="M 224.5,369.5 C 234.828,368.552 240.495,372.885 241.5,382.5C 222.706,406.942 223.039,431.275 242.5,455.5C 241.892,457.259 242.225,459.092 243.5,461C 241.752,464.497 239.752,467.83 237.5,471C 234.032,471.434 230.698,470.934 227.5,469.5C 207.022,447.191 201.522,421.524 211,392.5C 214.503,384.148 219.003,376.481 224.5,369.5 Z"/></g>
<g><path style="opacity:0.455" fill="#dedede" d="M 246.5,352.5 C 244.873,354.63 243.04,356.63 241,358.5C 240.369,361.393 239.536,364.226 238.5,367C 241.388,370.459 245.055,372.292 249.5,372.5C 247.906,373.983 246.24,375.483 244.5,377C 245.056,377.383 245.389,377.883 245.5,378.5C 244.5,380.167 243.167,381.5 241.5,382.5C 240.495,372.885 234.828,368.552 224.5,369.5C 224.833,368.5 225.5,367.833 226.5,367.5C 229.067,366.25 231.733,365.083 234.5,364C 235.167,362.333 235.833,360.667 236.5,359C 239.734,356.584 243.067,354.417 246.5,352.5 Z"/></g>
<g><path style="opacity:0.63" fill="#a7a7a7" d="M 820.5,364.5 C 821.931,365.78 822.598,367.447 822.5,369.5C 822.667,411.501 822.5,453.501 822,495.5C 821.722,496.416 821.222,497.082 820.5,497.5C 821.814,454.354 821.814,411.354 820.5,368.5C 820.5,367.167 820.5,365.833 820.5,364.5 Z"/></g>
<g><path style="opacity:0.361" fill="#c9c9c9" d="M 627.5,360.5 C 635.043,367.711 641.043,376.045 645.5,385.5C 644.292,384.766 642.959,384.433 641.5,384.5C 641.703,382.61 641.037,381.11 639.5,380C 635.459,379.173 631.459,379.34 627.5,380.5C 624.276,383.503 623.943,386.67 626.5,390C 625.584,390.278 624.918,390.778 624.5,391.5C 620.252,384.582 614.919,378.582 608.5,373.5C 610.312,373.771 611.978,374.438 613.5,375.5C 616.188,378.022 619.021,380.356 622,382.5C 623.751,379.08 626.418,376.746 630,375.5C 631.019,370.161 630.186,365.161 627.5,360.5 Z"/></g>
<g><path style="opacity:0.991" fill="#f6f6f6" d="M 645.5,385.5 C 654.88,404.001 655.88,423.001 648.5,442.5C 647.883,442.389 647.383,442.056 647,441.5C 646.577,442.956 645.744,443.456 644.5,443C 634.836,433.822 630.169,422.656 630.5,409.5C 629.423,403.19 627.423,397.19 624.5,391.5C 624.918,390.778 625.584,390.278 626.5,390C 623.943,386.67 624.276,383.503 627.5,380.5C 631.459,379.34 635.459,379.173 639.5,380C 641.037,381.11 641.703,382.61 641.5,384.5C 642.959,384.433 644.292,384.766 645.5,385.5 Z"/></g>
<g><path style="opacity:0.665" fill="#787879" d="M 763.5,326.5 C 767.042,326.187 770.375,326.521 773.5,327.5C 770.5,327.5 767.5,327.5 764.5,327.5C 764.5,395.833 764.5,464.167 764.5,532.5C 764.5,533.5 764.5,534.5 764.5,535.5C 763.501,466.002 763.167,396.335 763.5,326.5 Z"/></g>
<g><path style="opacity:0.987" fill="#414141" d="M 820.5,368.5 C 821.814,411.354 821.814,454.354 820.5,497.5C 820.5,498.167 820.167,498.5 819.5,498.5C 820.468,455.184 820.801,411.85 820.5,368.5 Z"/></g>
<g><path style="opacity:0.006" fill="#f0f0f0" d="M 763.5,326.5 C 763.167,396.335 763.501,466.002 764.5,535.5C 766.915,536.814 769.748,537.481 773,537.5C 777.88,537.429 782.713,536.929 787.5,536C 789.767,535.106 791.434,533.606 792.5,531.5C 796.489,531.003 800.156,529.67 803.5,527.5C 802.969,529.624 801.635,531.124 799.5,532C 794.197,534.316 788.864,536.649 783.5,539C 776.311,540.649 769.144,540.816 762,539.5C 761.689,471.121 761.856,402.788 762.5,334.5C 762.194,331.615 762.527,328.948 763.5,326.5 Z"/></g>
<g><path style="opacity:0.008" fill="#fafafa" d="M 744.5,430.5 C 746.092,482.994 746.592,535.661 746,588.5C 744.548,597.21 742.882,605.876 741,614.5C 739.347,620.989 736.847,626.989 733.5,632.5C 733.704,629.482 734.037,626.482 734.5,623.5C 735.458,623.047 736.292,622.381 737,621.5C 737.953,618.568 738.453,615.568 738.5,612.5C 738.5,612.167 738.5,611.833 738.5,611.5C 739.117,611.389 739.617,611.056 740,610.5C 741.415,604.181 742.748,597.847 744,591.5C 744.5,570.169 744.667,548.836 744.5,527.5C 744.5,495.167 744.5,462.833 744.5,430.5 Z"/></g>
<g><path style="opacity:0.422" fill="#c6c6c6" d="M 630.5,409.5 C 630.169,422.656 634.836,433.822 644.5,443C 645.744,443.456 646.577,442.956 647,441.5C 647.383,442.056 647.883,442.389 648.5,442.5C 646.136,450.23 642.469,457.23 637.5,463.5C 636.194,465.473 634.527,467.139 632.5,468.5C 633.744,465.74 635.244,463.073 637,460.5C 637.83,454.804 637.663,449.137 636.5,443.5C 633.812,442.995 631.645,441.662 630,439.5C 627.295,442.036 624.795,444.703 622.5,447.5C 629.923,435.937 632.589,423.27 630.5,409.5 Z"/></g>
<g><path style="opacity:0.011" fill="#f4f4f4" d="M 632.5,468.5 C 629.5,471.833 626.5,475.167 623.5,478.5C 620.755,480.568 617.755,482.234 614.5,483.5C 610.184,484.377 606.518,486.377 603.5,489.5C 602.432,490.434 601.099,490.768 599.5,490.5C 592.114,491.357 584.781,492.357 577.5,493.5C 574.833,493.333 572.167,493.167 569.5,493C 568.584,492.722 567.918,492.222 567.5,491.5C 573.842,491.666 580.175,491.5 586.5,491C 606.223,488.229 621.723,478.729 633,462.5C 634.03,457.057 633.03,452.057 630,447.5C 624.167,454.667 617.667,461.167 610.5,467C 590.225,477.558 569.225,478.891 547.5,471C 544.573,468.273 541.073,466.773 537,466.5C 534.456,466.821 533.456,468.155 534,470.5C 536.344,473.211 538.511,476.044 540.5,479C 545.077,481.239 549.411,483.905 553.5,487C 557.965,488.501 562.298,490.001 566.5,491.5C 562.466,491.495 558.466,491.162 554.5,490.5C 550.568,487.702 546.235,485.702 541.5,484.5C 539.147,483.66 537.147,482.326 535.5,480.5C 533.876,477.543 531.543,475.209 528.5,473.5C 527.544,472.135 526.878,470.635 526.5,469C 529.646,466.19 532.813,463.356 536,460.5C 538.542,462.182 541.375,463.182 544.5,463.5C 547.926,465.076 551.26,466.909 554.5,469C 557.445,470.131 560.445,470.964 563.5,471.5C 585.295,477.101 603.795,471.434 619,454.5C 620.705,452.423 621.872,450.09 622.5,447.5C 624.795,444.703 627.295,442.036 630,439.5C 631.645,441.662 633.812,442.995 636.5,443.5C 637.663,449.137 637.83,454.804 637,460.5C 635.244,463.073 633.744,465.74 632.5,468.5 Z M 567.5,491.5 C 567.167,491.5 566.833,491.5 566.5,491.5C 562.298,490.001 557.965,488.501 553.5,487C 549.411,483.905 545.077,481.239 540.5,479C 538.511,476.044 536.344,473.211 534,470.5C 533.456,468.155 534.456,466.821 537,466.5C 541.073,466.773 544.573,468.273 547.5,471C 569.225,478.891 590.225,477.558 610.5,467C 617.667,461.167 624.167,454.667 630,447.5C 633.03,452.057 634.03,457.057 633,462.5C 621.723,478.729 606.223,488.229 586.5,491C 580.175,491.5 573.842,491.666 567.5,491.5 Z"/></g>
<g><path style="opacity:0.373" fill="#d5d5d5" d="M 333.5,435.5 C 331.904,443.022 334.237,448.855 340.5,453C 343.361,453.2 346.028,453.367 348.5,453.5C 346.561,457.434 344.228,461.101 341.5,464.5C 340.883,464.389 340.383,464.056 340,463.5C 338.811,465.233 337.644,466.9 336.5,468.5C 337.705,462.037 335.871,456.704 331,452.5C 329.211,454.229 327.044,454.896 324.5,454.5C 326.127,452.37 327.96,450.37 330,448.5C 330.495,446.527 330.662,444.527 330.5,442.5C 331.659,440.145 332.659,437.812 333.5,435.5 Z"/></g>
<g><path style="opacity:0.459" fill="#9e9e9e" d="M 330.5,442.5 C 330.662,444.527 330.495,446.527 330,448.5C 327.96,450.37 326.127,452.37 324.5,454.5C 322.754,456.252 320.754,457.585 318.5,458.5C 322.998,453.486 326.998,448.153 330.5,442.5 Z"/></g>
<g><path style="opacity:0.428" fill="#d9d9d9" d="M 242.5,455.5 C 244.833,457.5 247.167,459.5 249.5,461.5C 249.389,462.117 249.056,462.617 248.5,463C 250.747,464.277 252.747,465.777 254.5,467.5C 250.5,467.5 246.5,467.5 242.5,467.5C 241.431,470.26 240.431,473.093 239.5,476C 240.252,476.671 240.586,477.504 240.5,478.5C 238.372,477.043 236.038,476.043 233.5,475.5C 231.167,473.833 229.167,471.833 227.5,469.5C 230.698,470.934 234.032,471.434 237.5,471C 239.752,467.83 241.752,464.497 243.5,461C 242.225,459.092 241.892,457.259 242.5,455.5 Z"/></g>
<g><path style="opacity:0.469" fill="#dadada" d="M 531.5,446.5 C 533.787,450.122 536.453,453.455 539.5,456.5C 540.038,458.117 540.371,459.784 540.5,461.5C 542.38,461.229 543.713,461.896 544.5,463.5C 541.375,463.182 538.542,462.182 536,460.5C 532.813,463.356 529.646,466.19 526.5,469C 526.878,470.635 527.544,472.135 528.5,473.5C 531.543,475.209 533.876,477.543 535.5,480.5C 527.521,475.855 521.188,469.521 516.5,461.5C 517.222,461.082 517.722,460.416 518,459.5C 519.883,460.653 520.716,462.319 520.5,464.5C 523.187,464.664 525.854,464.497 528.5,464C 531.188,460.109 532.521,455.943 532.5,451.5C 531.975,450.808 531.308,450.308 530.5,450C 531.337,448.989 531.67,447.822 531.5,446.5 Z"/></g>
<g><path style="opacity:0.152" fill="#dbdbdb" d="M 822.5,369.5 C 823.499,410.663 823.832,451.997 823.5,493.5C 821.965,507.91 815.298,519.244 803.5,527.5C 800.156,529.67 796.489,531.003 792.5,531.5C 798.052,528.129 803.219,524.129 808,519.5C 813.401,513.365 817.235,506.365 819.5,498.5C 820.167,498.5 820.5,498.167 820.5,497.5C 821.222,497.082 821.722,496.416 822,495.5C 822.5,453.501 822.667,411.501 822.5,369.5 Z"/></g>
<g><path style="opacity:0.467" fill="#9d9d9d" d="M 539.5,456.5 C 546.528,463.222 554.528,468.222 563.5,471.5C 560.445,470.964 557.445,470.131 554.5,469C 551.26,466.909 547.926,465.076 544.5,463.5C 543.713,461.896 542.38,461.229 540.5,461.5C 540.371,459.784 540.038,458.117 539.5,456.5 Z"/></g>
<g><path style="opacity:0.267" fill="#a2a2a2" d="M 622.5,447.5 C 621.872,450.09 620.705,452.423 619,454.5C 603.795,471.434 585.295,477.101 563.5,471.5C 588.191,475.43 607.857,467.43 622.5,447.5 Z"/></g>
<g><path style="opacity:0.01" fill="#f5f5f5" d="M 336.5,468.5 C 323.173,482.41 307.173,490.743 288.5,493.5C 281.151,493.451 273.817,493.118 266.5,492.5C 266.167,492.5 265.833,492.5 265.5,492.5C 258.819,489.646 252.152,486.48 245.5,483C 243.382,481.951 241.716,480.451 240.5,478.5C 240.586,477.504 240.252,476.671 239.5,476C 240.431,473.093 241.431,470.26 242.5,467.5C 246.5,467.5 250.5,467.5 254.5,467.5C 261.57,469.911 268.57,472.411 275.5,475C 282.25,476.168 288.583,475.335 294.5,472.5C 301.734,471.768 307.734,468.768 312.5,463.5C 314.5,461.833 316.5,460.167 318.5,458.5C 320.754,457.585 322.754,456.252 324.5,454.5C 327.044,454.896 329.211,454.229 331,452.5C 335.871,456.704 337.705,462.037 336.5,468.5 Z M 322.5,461.5 C 318.889,465.605 314.555,468.772 309.5,471C 301.992,473.614 294.325,475.614 286.5,477C 277.265,477.809 268.431,476.309 260,472.5C 256.255,473.297 252.421,473.797 248.5,474C 247.833,474.667 247.167,475.333 246.5,476C 250.344,478.422 254.01,481.089 257.5,484C 284.735,495.744 308.902,491.244 330,470.5C 331.276,467.866 330.943,465.199 329,462.5C 326.959,461.577 324.792,461.244 322.5,461.5 Z"/></g>
<g><path style="opacity:0.18" fill="#a7a7a7" d="M 312.5,463.5 C 307.734,468.768 301.734,471.768 294.5,472.5C 300.573,470.13 306.573,467.13 312.5,463.5 Z"/></g>
<g><path style="opacity:0.859" fill="#313131" d="M 637.5,463.5 C 637.762,464.978 637.429,466.311 636.5,467.5C 632.421,471.588 628.088,475.255 623.5,478.5C 626.5,475.167 629.5,471.833 632.5,468.5C 634.527,467.139 636.194,465.473 637.5,463.5 Z"/></g>
<g><path style="opacity:0.214" fill="#b6b6b6" d="M 249.5,461.5 C 262.9,471.347 277.9,475.014 294.5,472.5C 288.583,475.335 282.25,476.168 275.5,475C 268.57,472.411 261.57,469.911 254.5,467.5C 252.747,465.777 250.747,464.277 248.5,463C 249.056,462.617 249.389,462.117 249.5,461.5 Z"/></g>
<g><path style="opacity:0.267" fill="#acacac" d="M 341.5,464.5 C 330.951,478.791 316.951,488.124 299.5,492.5C 295.865,493.114 292.198,493.448 288.5,493.5C 307.173,490.743 323.173,482.41 336.5,468.5C 337.644,466.9 338.811,465.233 340,463.5C 340.383,464.056 340.883,464.389 341.5,464.5 Z"/></g>
<g><path style="opacity:0.329" fill="#9e9e9e" d="M 541.5,484.5 C 546.235,485.702 550.568,487.702 554.5,490.5C 553.127,490.657 551.793,490.49 550.5,490C 547.135,488.656 544.135,486.823 541.5,484.5 Z"/></g>
<g><path style="opacity:0.357" fill="#afafaf" d="M 614.5,483.5 C 612.747,485.223 610.747,486.723 608.5,488C 606.975,489.009 605.308,489.509 603.5,489.5C 606.518,486.377 610.184,484.377 614.5,483.5 Z"/></g>
<g><path style="opacity:0.651" fill="#a3a3a3" d="M 233.5,475.5 C 236.038,476.043 238.372,477.043 240.5,478.5C 241.716,480.451 243.382,481.951 245.5,483C 252.152,486.48 258.819,489.646 265.5,492.5C 253.076,489.957 242.409,484.29 233.5,475.5 Z"/></g>
<g><path style="opacity:0.472" fill="#989898" d="M 266.5,492.5 C 273.817,493.118 281.151,493.451 288.5,493.5C 283.695,494.487 278.695,494.821 273.5,494.5C 270.99,494.073 268.657,493.407 266.5,492.5 Z"/></g>
<g><path style="opacity:0.392" fill="#a2a2a2" d="M 554.5,490.5 C 558.466,491.162 562.466,491.495 566.5,491.5C 566.833,491.5 567.167,491.5 567.5,491.5C 567.918,492.222 568.584,492.722 569.5,493C 572.167,493.167 574.833,493.333 577.5,493.5C 584.781,492.357 592.114,491.357 599.5,490.5C 596.393,491.981 593.059,493.148 589.5,494C 578.05,495.051 566.717,494.384 555.5,492C 554.944,491.617 554.611,491.117 554.5,490.5 Z"/></g>
<g><path style="opacity:0.882" fill="#262626" d="M 299.5,492.5 C 296.466,494.018 293.133,494.851 289.5,495C 283.984,495.817 278.65,495.651 273.5,494.5C 278.695,494.821 283.695,494.487 288.5,493.5C 292.198,493.448 295.865,493.114 299.5,492.5 Z"/></g>
<g><path style="opacity:0.008" fill="#f0f0f0" d="M 83.5,321.5 C 87.8461,321.334 92.1794,321.501 96.5,322C 98.0656,323.684 99.0656,325.684 99.5,328C 98.8794,398.837 98.2127,469.671 97.5,540.5C 71.8287,541.416 52.662,530.75 40,508.5C 36.2682,499.556 34.6015,490.223 35,480.5C 34.5424,444.828 34.8758,409.162 36,373.5C 37.6145,351.77 48.1145,335.937 67.5,326C 72.9176,324.387 78.2509,322.887 83.5,321.5 Z"/></g>
<g><path style="opacity:0.449" fill="#aeaeae" d="M 38.5,374.5 C 38.5,382.5 38.5,390.5 38.5,398.5C 38.3334,430.835 38.5,463.168 39,495.5C 40.5074,499.844 42.0074,504.178 43.5,508.5C 42.5416,508.047 41.7083,507.381 41,506.5C 39.3625,501.565 38.0292,496.565 37,491.5C 36.3333,458.167 36.3333,424.833 37,391.5C 37.1728,385.652 37.6728,379.985 38.5,374.5 Z"/></g>
<g><path style="opacity:0.768" fill="#4e4e4e" d="M 40.5,362.5 C 39.8931,374.642 39.2265,386.642 38.5,398.5C 38.5,390.5 38.5,382.5 38.5,374.5C 38.335,371.15 38.5017,367.817 39,364.5C 39.2784,363.584 39.7784,362.918 40.5,362.5 Z"/></g>
<g><path style="opacity:0.672" fill="#727272" d="M 94.5,327.5 C 95.404,328.209 95.7373,329.209 95.5,330.5C 95.6667,398.834 95.5,467.167 95,535.5C 94.6174,536.056 94.1174,536.389 93.5,536.5C 94.4934,466.875 94.8267,397.208 94.5,327.5 Z"/></g>
<g><path style="opacity:0.455" fill="#b0b0b0" d="M 95.5,330.5 C 95.7373,329.209 95.404,328.209 94.5,327.5C 68.0565,325.255 50.0565,336.588 40.5,361.5C 41.0515,356.01 42.8849,351.01 46,346.5C 56.4402,331.864 70.6068,324.531 88.5,324.5C 90.9649,324.478 93.2983,324.978 95.5,326C 96.8009,327.616 96.8009,329.116 95.5,330.5 Z"/></g>
<g><path style="opacity:0.999" fill="#010101" d="M 94.5,327.5 C 94.8267,397.208 94.4934,466.875 93.5,536.5C 90.1667,536.5 86.8333,536.5 83.5,536.5C 81.4855,535.076 79.1522,534.41 76.5,534.5C 69.1812,532.525 62.5146,529.192 56.5,524.5C 54.1667,521.5 51.5,518.833 48.5,516.5C 47.3307,513.489 45.664,510.822 43.5,508.5C 42.0074,504.178 40.5074,499.844 39,495.5C 38.5,463.168 38.3334,430.835 38.5,398.5C 39.2265,386.642 39.8931,374.642 40.5,362.5C 40.5,362.167 40.5,361.833 40.5,361.5C 50.0565,336.588 68.0565,325.255 94.5,327.5 Z"/></g>
<g><path style="opacity:0.255" fill="#a4a4a4" d="M 48.5,516.5 C 51.5,518.833 54.1667,521.5 56.5,524.5C 52.8333,522.833 50.1667,520.167 48.5,516.5 Z"/></g>
<g><path style="opacity:0.008" fill="#f5f5f5" d="M 678.5,530.5 C 675.647,529.047 672.647,527.881 669.5,527C 664.295,526.759 659.128,526.259 654,525.5C 644.679,528.663 636.512,533.663 629.5,540.5C 629.343,539.127 629.51,537.793 630,536.5C 633.13,534.372 635.963,531.872 638.5,529C 643.483,527.782 648.149,525.782 652.5,523C 660.941,522.03 668.941,523.53 676.5,527.5C 677.612,528.265 678.279,529.265 678.5,530.5 Z"/></g>
<g><path style="opacity:0.051" fill="#b3b3b3" d="M 684.5,531.5 C 682.5,531.167 680.5,530.833 678.5,530.5C 678.279,529.265 677.612,528.265 676.5,527.5C 668.941,523.53 660.941,522.03 652.5,523C 648.149,525.782 643.483,527.782 638.5,529C 635.963,531.872 633.13,534.372 630,536.5C 629.51,537.793 629.343,539.127 629.5,540.5C 626.794,540.688 624.461,541.688 622.5,543.5C 622.369,542.761 622.536,542.094 623,541.5C 630.551,532.6 639.717,526.1 650.5,522C 663.606,519.604 674.939,522.771 684.5,531.5 Z"/></g>
<g><path style="opacity:0.18" fill="#aeaeae" d="M 56.5,524.5 C 62.5146,529.192 69.1812,532.525 76.5,534.5C 78.5145,535.924 80.8478,536.59 83.5,536.5C 86.8333,536.5 90.1667,536.5 93.5,536.5C 79.0493,538.905 66.7159,534.905 56.5,524.5 Z"/></g>
<g><path style="opacity:0.075" fill="#b8b8b8" d="M 792.5,531.5 C 791.434,533.606 789.767,535.106 787.5,536C 782.713,536.929 777.88,537.429 773,537.5C 769.748,537.481 766.915,536.814 764.5,535.5C 769.267,536.797 773.934,536.797 778.5,535.5C 783.343,534.743 788.009,533.41 792.5,531.5 Z"/></g>
<g><path style="opacity:0.847" fill="#505050" d="M 76.5,534.5 C 79.1522,534.41 81.4855,535.076 83.5,536.5C 80.8478,536.59 78.5145,535.924 76.5,534.5 Z"/></g>
<g><path style="opacity:0.965" fill="#383838" d="M 764.5,532.5 C 765.267,533.172 765.934,534.005 766.5,535C 770.486,535.499 774.486,535.666 778.5,535.5C 773.934,536.797 769.267,536.797 764.5,535.5C 764.5,534.5 764.5,533.5 764.5,532.5 Z"/></g>
<g><path style="opacity:0.22" fill="#a3a3a3" d="M 687.5,533.5 C 693.561,538.959 697.561,545.626 699.5,553.5C 699.5,554.167 699.5,554.833 699.5,555.5C 696.168,547.831 692.168,540.498 687.5,533.5 Z"/></g>
<g><path style="opacity:0.009" fill="#f6f6f6" d="M 678.5,530.5 C 680.5,530.833 682.5,531.167 684.5,531.5C 685.5,532.167 686.5,532.833 687.5,533.5C 692.168,540.498 696.168,547.831 699.5,555.5C 699.552,562.206 699.052,568.872 698,575.5C 697.502,577.544 696.335,578.878 694.5,579.5C 696.364,574.546 697.697,569.38 698.5,564C 696.132,550.161 689.465,538.994 678.5,530.5 Z"/></g>
<g><path style="opacity:0.075" fill="#cecece" d="M 672.5,554.5 C 673.778,557.504 674.778,560.671 675.5,564C 675.472,565.07 675.139,565.903 674.5,566.5C 673.362,557.366 668.362,551.699 659.5,549.5C 657.366,549.515 655.366,550.015 653.5,551C 647.567,556.433 642.233,562.266 637.5,568.5C 639.774,564.95 641.774,561.284 643.5,557.5C 646.664,554.167 649.664,550.667 652.5,547C 661.196,544.285 667.863,546.785 672.5,554.5 Z"/></g>
<g><path style="opacity:0.302" fill="#9e9e9e" d="M 622.5,543.5 C 619.542,548.126 615.876,552.126 611.5,555.5C 614.486,550.848 618.153,546.848 622.5,543.5 Z"/></g>
<g><path style="opacity:0.999" fill="#060606" d="M 674.5,566.5 C 673.71,567.609 673.21,568.942 673,570.5C 669.275,573.728 665.775,577.061 662.5,580.5C 658.449,583.673 655.115,587.339 652.5,591.5C 644.176,600.125 635.842,608.791 627.5,617.5C 624.833,619.5 622.5,621.833 620.5,624.5C 616.012,628.144 611.345,631.644 606.5,635C 605.552,635.483 604.552,635.649 603.5,635.5C 597.279,632.278 591.612,628.278 586.5,623.5C 582.921,619.377 578.921,615.71 574.5,612.5C 571.871,608.537 568.871,604.871 565.5,601.5C 563.671,595.764 564.338,590.43 567.5,585.5C 569.34,583.832 571.34,582.332 573.5,581C 576.146,580.503 578.813,580.336 581.5,580.5C 587.81,586.806 594.477,592.806 601.5,598.5C 602.406,600.914 604.072,601.747 606.5,601C 614.675,592.992 622.675,584.825 630.5,576.5C 632.833,573.833 635.167,571.167 637.5,568.5C 642.233,562.266 647.567,556.433 653.5,551C 655.366,550.015 657.366,549.515 659.5,549.5C 668.362,551.699 673.362,557.366 674.5,566.5 Z"/></g>
<g><path style="opacity:0.071" fill="#bcbcbc" d="M 593.5,555.5 C 582.755,553.902 572.088,554.235 561.5,556.5C 562.347,555.034 563.68,554.2 565.5,554C 575.169,551.56 584.502,552.06 593.5,555.5 Z"/></g>
<g><path style="opacity:0.39" fill="#b2b2b2" d="M 742.5,499.5 C 743.167,508.833 743.833,518.167 744.5,527.5C 744.667,548.836 744.5,570.169 744,591.5C 742.748,597.847 741.415,604.181 740,610.5C 739.617,611.056 739.117,611.389 738.5,611.5C 739.398,605.112 740.398,598.778 741.5,592.5C 742.498,561.671 742.831,530.671 742.5,499.5 Z"/></g>
<g><path style="opacity:0.505" fill="#646464" d="M 699.5,553.5 C 700.117,553.611 700.617,553.944 701,554.5C 701.167,557.5 701.333,560.5 701.5,563.5C 701.722,567.797 701.055,571.797 699.5,575.5C 700.632,568.679 700.632,562.012 699.5,555.5C 699.5,554.833 699.5,554.167 699.5,553.5 Z"/></g>
<g><path style="opacity:0.529" fill="#939393" d="M 558.5,558.5 C 553.833,562.5 549.5,566.833 545.5,571.5C 548.167,565.5 552.5,561.167 558.5,558.5 Z"/></g>
<g><path style="opacity:0.008" fill="#f4f4f4" d="M 672.5,554.5 C 674.876,555.726 676.376,557.726 677,560.5C 677.667,563.833 677.667,567.167 677,570.5C 672.938,576.064 668.104,580.731 662.5,584.5C 662.5,583.167 662.5,581.833 662.5,580.5C 666.718,578.167 670.551,575.167 674,571.5C 674.494,569.866 674.66,568.199 674.5,566.5C 675.139,565.903 675.472,565.07 675.5,564C 674.778,560.671 673.778,557.504 672.5,554.5 Z"/></g>
<g><path style="opacity:0.216" fill="#aaaaaa" d="M 674.5,566.5 C 674.66,568.199 674.494,569.866 674,571.5C 670.551,575.167 666.718,578.167 662.5,580.5C 665.775,577.061 669.275,573.728 673,570.5C 673.21,568.942 673.71,567.609 674.5,566.5 Z"/></g>
<g><path style="opacity:0.011" fill="#f4f4f4" d="M 629.5,540.5 C 625.231,545.271 620.731,549.938 616,554.5C 613.949,559.214 611.115,563.381 607.5,567C 601.132,566.142 595.798,563.142 591.5,558C 585.856,557.823 580.356,556.99 575,555.5C 571.646,556.811 568.146,557.644 564.5,558C 561.29,561.212 557.79,564.046 554,566.5C 551.552,570.285 548.718,573.785 545.5,577C 541.19,596.893 545.523,614.56 558.5,630C 567.1,636.596 575.1,643.93 582.5,652C 586.962,654.23 591.628,655.897 596.5,657C 605.789,659.542 614.789,658.875 623.5,655C 626.101,651.888 629.101,649.388 632.5,647.5C 631.189,650.154 629.855,652.821 628.5,655.5C 625.663,655.684 623.663,657.018 622.5,659.5C 622.167,659.5 621.833,659.5 621.5,659.5C 607.471,664.443 594.138,663.11 581.5,655.5C 574.304,646.516 565.971,638.85 556.5,632.5C 554.833,630.5 553.167,628.5 551.5,626.5C 550.663,622.907 548.663,620.24 545.5,618.5C 543.881,613.726 542.047,609.059 540,604.5C 539.04,595.694 539.54,587.027 541.5,578.5C 542.095,575.683 543.428,573.35 545.5,571.5C 549.5,566.833 553.833,562.5 558.5,558.5C 558.973,557.094 559.973,556.427 561.5,556.5C 572.088,554.235 582.755,553.902 593.5,555.5C 595.431,559.01 598.431,561.01 602.5,561.5C 602.97,562.693 603.97,563.36 605.5,563.5C 609.4,562.266 611.4,559.599 611.5,555.5C 615.876,552.126 619.542,548.126 622.5,543.5C 624.461,541.688 626.794,540.688 629.5,540.5 Z"/></g>
<g><path style="opacity:0.075" fill="#c4c4c4" d="M 611.5,555.5 C 611.4,559.599 609.4,562.266 605.5,563.5C 603.97,563.36 602.97,562.693 602.5,561.5C 603.873,561.657 605.207,561.49 606.5,561C 607.664,558.672 609.33,556.838 611.5,555.5 Z"/></g>
<g><path style="opacity:0.239" fill="#b4b4b4" d="M 593.5,555.5 C 596.709,557.265 599.709,559.265 602.5,561.5C 598.431,561.01 595.431,559.01 593.5,555.5 Z"/></g>
<g><path style="opacity:0.011" fill="#f2f2f2" d="M 643.5,557.5 C 641.774,561.284 639.774,564.95 637.5,568.5C 635.167,571.167 632.833,573.833 630.5,576.5C 621.967,583.024 613.967,590.357 606.5,598.5C 604.905,599.434 603.239,599.434 601.5,598.5C 597.522,594.187 593.522,589.854 589.5,585.5C 587.33,582.988 584.663,581.321 581.5,580.5C 576.965,578.934 572.632,579.601 568.5,582.5C 567.873,583.417 567.539,584.417 567.5,585.5C 565.97,586.211 564.637,587.211 563.5,588.5C 567.651,576.503 575.317,573.669 586.5,580C 591.848,586.689 598.348,591.855 606,595.5C 618.675,582.992 631.175,570.325 643.5,557.5 Z"/></g>
<g><path style="opacity:0.318" fill="#9d9d9d" d="M 581.5,580.5 C 578.813,580.336 576.146,580.503 573.5,581C 571.34,582.332 569.34,583.832 567.5,585.5C 567.539,584.417 567.873,583.417 568.5,582.5C 572.632,579.601 576.965,578.934 581.5,580.5 Z"/></g>
<g><path style="opacity:0.008" fill="#c7c7c7" d="M 662.5,580.5 C 662.5,581.833 662.5,583.167 662.5,584.5C 662.5,585.833 661.833,586.5 660.5,586.5C 657.851,588.14 655.184,589.807 652.5,591.5C 655.115,587.339 658.449,583.673 662.5,580.5 Z"/></g>
<g><path style="opacity:0.345" fill="#aaaaaa" d="M 630.5,576.5 C 622.675,584.825 614.675,592.992 606.5,601C 604.072,601.747 602.406,600.914 601.5,598.5C 603.239,599.434 604.905,599.434 606.5,598.5C 613.967,590.357 621.967,583.024 630.5,576.5 Z"/></g>
<g><path style="opacity:0.363" fill="#a0a0a0" d="M 541.5,578.5 C 539.54,587.027 539.04,595.694 540,604.5C 542.047,609.059 543.881,613.726 545.5,618.5C 538.632,609.017 536.132,598.35 538,586.5C 538.387,583.401 539.554,580.734 541.5,578.5 Z"/></g>
<g><path style="opacity:0.278" fill="#a6a6a6" d="M 581.5,580.5 C 584.663,581.321 587.33,582.988 589.5,585.5C 593.522,589.854 597.522,594.187 601.5,598.5C 594.477,592.806 587.81,586.806 581.5,580.5 Z"/></g>
<g><path style="opacity:0.376" fill="#a3a3a3" d="M 567.5,585.5 C 564.338,590.43 563.671,595.764 565.5,601.5C 563.577,597.971 562.911,593.971 563.5,589.5C 563.5,589.167 563.5,588.833 563.5,588.5C 564.637,587.211 565.97,586.211 567.5,585.5 Z"/></g>
<g><path style="opacity:0.013" fill="#dadada" d="M 699.5,555.5 C 700.632,562.012 700.632,568.679 699.5,575.5C 698.095,580.977 695.595,585.977 692,590.5C 670.911,612.42 649.745,634.087 628.5,655.5C 629.855,652.821 631.189,650.154 632.5,647.5C 650.824,628.009 669.324,608.676 688,589.5C 690.052,585.977 692.218,582.643 694.5,579.5C 696.335,578.878 697.502,577.544 698,575.5C 699.052,568.872 699.552,562.206 699.5,555.5 Z"/></g>
<g><path style="opacity:0.439" fill="#8c8c8c" d="M 118.5,604.5 C 120.636,610.686 122.636,617.02 124.5,623.5C 122.903,622.263 121.737,620.596 121,618.5C 119.377,614.013 118.544,609.347 118.5,604.5 Z"/></g>
<g><path style="opacity:0.125" fill="#adadad" d="M 738.5,612.5 C 738.453,615.568 737.953,618.568 737,621.5C 736.292,622.381 735.458,623.047 734.5,623.5C 735.082,619.468 736.416,615.801 738.5,612.5 Z"/></g>
<g><path style="opacity:0.255" fill="#b3b3b3" d="M 545.5,618.5 C 548.663,620.24 550.663,622.907 551.5,626.5C 548.529,624.557 546.529,621.891 545.5,618.5 Z"/></g>
<g><path style="opacity:0.009" fill="#efefef" d="M 660.5,586.5 C 646.131,604.707 630.131,621.54 612.5,637C 606.972,641.229 601.306,641.229 595.5,637C 584.044,627.378 573.377,616.878 563.5,605.5C 561.515,600.689 561.015,595.689 562,590.5C 562.383,589.944 562.883,589.611 563.5,589.5C 562.911,593.971 563.577,597.971 565.5,601.5C 567.294,605.979 570.294,609.645 574.5,612.5C 577.263,617.543 581.263,621.209 586.5,623.5C 591.612,628.278 597.279,632.278 603.5,635.5C 605.435,636.709 607.435,636.542 609.5,635C 613.668,631.998 617.335,628.498 620.5,624.5C 622.5,621.833 624.833,619.5 627.5,617.5C 632.406,614.102 636.906,610.102 641,605.5C 645.069,600.94 648.902,596.274 652.5,591.5C 655.184,589.807 657.851,588.14 660.5,586.5 Z"/></g>
<g><path style="opacity:0.322" fill="#a7a7a7" d="M 574.5,612.5 C 578.921,615.71 582.921,619.377 586.5,623.5C 581.263,621.209 577.263,617.543 574.5,612.5 Z"/></g>
<g><path style="opacity:0.302" fill="#a4a4a4" d="M 652.5,591.5 C 648.902,596.274 645.069,600.94 641,605.5C 636.906,610.102 632.406,614.102 627.5,617.5C 635.842,608.791 644.176,600.125 652.5,591.5 Z"/></g>
<g><path style="opacity:0.345" fill="#9d9d9d" d="M 565.5,601.5 C 568.871,604.871 571.871,608.537 574.5,612.5C 570.294,609.645 567.294,605.979 565.5,601.5 Z"/></g>
<g><path style="opacity:0.878" fill="#505050" d="M 124.5,623.5 C 125.971,625.216 126.971,627.216 127.5,629.5C 125.455,628.077 124.455,626.077 124.5,623.5 Z"/></g>
<g><path style="opacity:0.071" fill="#b1b1b1" d="M 734.5,623.5 C 734.037,626.482 733.704,629.482 733.5,632.5C 731.833,633.833 730.167,635.167 728.5,636.5C 730.58,632.123 732.58,627.789 734.5,623.5 Z"/></g>
<g><path style="opacity:0.098" fill="#a9a9a9" d="M 556.5,632.5 C 565.971,638.85 574.304,646.516 581.5,655.5C 572.261,648.932 563.927,641.265 556.5,632.5 Z"/></g>
<g><path style="opacity:0.412" fill="#a0a0a0" d="M 620.5,624.5 C 617.335,628.498 613.668,631.998 609.5,635C 607.435,636.542 605.435,636.709 603.5,635.5C 604.552,635.649 605.552,635.483 606.5,635C 611.345,631.644 616.012,628.144 620.5,624.5 Z"/></g>
<g><path style="opacity:0.565" fill="#9a9a9a" d="M 628.5,655.5 C 626.795,657.192 624.795,658.525 622.5,659.5C 623.663,657.018 625.663,655.684 628.5,655.5 Z"/></g>
<g><path style="opacity:0.357" fill="#a6a6a6" d="M 581.5,655.5 C 594.138,663.11 607.471,664.443 621.5,659.5C 610.053,665.976 598.386,666.143 586.5,660C 584.382,658.951 582.716,657.451 581.5,655.5 Z"/></g>
<g><path style="opacity:0.427" fill="#929292" d="M 722.5,645.5 C 718.601,653.4 712.934,659.733 705.5,664.5C 711.566,658.439 717.233,652.106 722.5,645.5 Z"/></g>
<g><path style="opacity:0.427" fill="#a3a3a3" d="M 705.5,664.5 C 705.719,665.675 705.386,666.675 704.5,667.5C 702.076,668.423 700.076,669.923 698.5,672C 697.552,672.483 696.552,672.649 695.5,672.5C 698.52,669.484 701.854,666.817 705.5,664.5 Z"/></g>
<g><path style="opacity:0.365" fill="#a0a0a0" d="M 689.5,676.5 C 688.01,679.892 685.343,681.226 681.5,680.5C 683.849,678.659 686.515,677.326 689.5,676.5 Z"/></g>
<g><path style="opacity:0.388" fill="#9c9c9c" d="M 681.5,680.5 C 679.2,683.266 676.2,685.099 672.5,686C 664.964,688.341 657.297,689.841 649.5,690.5C 648.833,690.5 648.167,690.5 647.5,690.5C 649.5,689.833 651.5,689.167 653.5,688.5C 656.874,688.326 660.207,687.826 663.5,687C 669.519,684.717 675.519,682.551 681.5,680.5 Z"/></g>
<g><path style="opacity:0.944" fill="#1d1d1d" d="M 653.5,688.5 C 651.5,689.167 649.5,689.833 647.5,690.5C 645.5,690.5 643.5,690.5 641.5,690.5C 500.5,690.667 359.5,690.5 218.5,690C 213.981,689.825 209.647,689.325 205.5,688.5C 354.694,688.295 504.028,688.295 653.5,688.5 Z"/></g>
<g><path style="opacity:0.561" fill="#9b9b9b" d="M 192.5,686.5 C 196.86,687.007 201.193,687.673 205.5,688.5C 209.647,689.325 213.981,689.825 218.5,690C 359.5,690.5 500.5,690.667 641.5,690.5C 498.313,691.828 354.979,691.828 211.5,690.5C 208.482,690.665 205.482,690.498 202.5,690C 199.623,688.873 196.623,688.206 193.5,688C 192.944,687.617 192.611,687.117 192.5,686.5 Z"/></g>
<g><path style="opacity:0.225" fill="#cccccc" d="M 211.5,690.5 C 354.979,691.828 498.313,691.828 641.5,690.5C 643.5,690.5 645.5,690.5 647.5,690.5C 648.167,690.5 648.833,690.5 649.5,690.5C 647.369,691.314 645.036,691.814 642.5,692C 500.167,692.5 357.834,692.667 215.5,692.5C 214.833,692.5 214.167,692.5 213.5,692.5C 212.833,691.833 212.167,691.167 211.5,690.5 Z"/></g>
<g><path style="opacity:0.008" fill="#fafafa" d="M 733.5,632.5 C 718.18,663.989 693.514,683.822 659.5,692C 627.537,693.896 595.537,694.729 563.5,694.5C 451.009,693.47 338.509,693.47 226,694.5C 222.24,694.514 218.74,693.847 215.5,692.5C 357.834,692.667 500.167,692.5 642.5,692C 645.036,691.814 647.369,691.314 649.5,690.5C 657.297,689.841 664.964,688.341 672.5,686C 676.2,685.099 679.2,683.266 681.5,680.5C 685.343,681.226 688.01,679.892 689.5,676.5C 691.463,675.18 693.463,673.846 695.5,672.5C 696.552,672.649 697.552,672.483 698.5,672C 700.076,669.923 702.076,668.423 704.5,667.5C 705.386,666.675 705.719,665.675 705.5,664.5C 712.934,659.733 718.601,653.4 722.5,645.5C 724.533,642.477 726.533,639.477 728.5,636.5C 730.167,635.167 731.833,633.833 733.5,632.5 Z"/></g>
<g><path style="opacity:0.342" fill="#b8b8b8" d="M 537.5,712.5 C 537.5,712.833 537.5,713.167 537.5,713.5C 464.762,713.17 392.096,713.503 319.5,714.5C 319.5,713.833 319.5,713.167 319.5,712.5C 391.946,712.489 464.612,712.489 537.5,712.5 Z"/></g>
<g><path style="opacity:0.75" fill="#515151" d="M 537.5,713.5 C 538.167,713.5 538.5,713.833 538.5,714.5C 465.494,714.237 392.494,714.571 319.5,715.5C 319.5,715.167 319.5,714.833 319.5,714.5C 392.096,713.503 464.762,713.17 537.5,713.5 Z"/></g>
<g><path style="opacity:0.999" fill="#020202" d="M 538.5,714.5 C 539.492,714.328 540.158,714.662 540.5,715.5C 541.159,725.49 541.992,735.49 543,745.5C 543.791,748.104 545.291,750.104 547.5,751.5C 548.5,753.167 549.833,754.5 551.5,755.5C 553.296,757.9 555.63,759.567 558.5,760.5C 566.012,761.304 573.679,761.97 581.5,762.5C 582.787,766.065 582.787,769.732 581.5,773.5C 562.705,774.142 544.039,774.809 525.5,775.5C 443.833,775.667 362.166,775.5 280.5,775C 277.396,771.547 276.73,767.713 278.5,763.5C 279.289,763.217 279.956,762.717 280.5,762C 285.167,761.665 289.834,761.832 294.5,762.5C 297.527,762.713 300.193,762.047 302.5,760.5C 302.833,760.5 303.167,760.5 303.5,760.5C 307.938,760.067 310.938,757.733 312.5,753.5C 314.358,751.117 315.692,748.45 316.5,745.5C 317.117,745.389 317.617,745.056 318,744.5C 319.198,734.87 319.698,725.204 319.5,715.5C 392.494,714.571 465.494,714.237 538.5,714.5 Z"/></g>
<g><path style="opacity:0.009" fill="#f5f5f5" d="M 537.5,713.5 C 537.5,713.167 537.5,712.833 537.5,712.5C 539.5,712.5 541.5,712.5 543.5,712.5C 543.491,714.308 543.991,715.975 545,717.5C 545.333,726.5 545.667,735.5 546,744.5C 549.39,749.322 553.224,753.656 557.5,757.5C 555.5,756.833 553.5,756.167 551.5,755.5C 549.833,754.5 548.5,753.167 547.5,751.5C 546.342,749.184 545.175,746.85 544,744.5C 543.667,735.5 543.333,726.5 543,717.5C 542.292,716.619 541.458,715.953 540.5,715.5C 540.158,714.662 539.492,714.328 538.5,714.5C 538.5,713.833 538.167,713.5 537.5,713.5 Z"/></g>
<g><path style="opacity:0.424" fill="#959595" d="M 319.5,714.5 C 319.5,714.833 319.5,715.167 319.5,715.5C 319.698,725.204 319.198,734.87 318,744.5C 317.617,745.056 317.117,745.389 316.5,745.5C 316.782,734.828 317.782,724.494 319.5,714.5 Z"/></g>
<g><path style="opacity:0.362" fill="#9f9f9f" d="M 540.5,715.5 C 541.458,715.953 542.292,716.619 543,717.5C 543.333,726.5 543.667,735.5 544,744.5C 545.175,746.85 546.342,749.184 547.5,751.5C 545.291,750.104 543.791,748.104 543,745.5C 541.992,735.49 541.159,725.49 540.5,715.5 Z"/></g>
<g><path style="opacity:0.682" fill="#626262" d="M 312.5,753.5 C 310.938,757.733 307.938,760.067 303.5,760.5C 306.74,758.608 309.74,756.274 312.5,753.5 Z"/></g>
<g><path style="opacity:0.348" fill="#b8b8b8" d="M 551.5,755.5 C 553.5,756.167 555.5,756.833 557.5,757.5C 565.167,758.833 572.833,760.167 580.5,761.5C 573.254,760.536 565.92,760.203 558.5,760.5C 555.63,759.567 553.296,757.9 551.5,755.5 Z"/></g>
<g><path style="opacity:0.041" fill="#eeeeee" d="M 319.5,712.5 C 319.5,713.167 319.5,713.833 319.5,714.5C 317.782,724.494 316.782,734.828 316.5,745.5C 315.692,748.45 314.358,751.117 312.5,753.5C 309.74,756.274 306.74,758.608 303.5,760.5C 303.167,760.5 302.833,760.5 302.5,760.5C 294.414,760.199 286.414,760.533 278.5,761.5C 277.206,763.048 276.539,765.048 276.5,767.5C 276.291,770.454 276.958,773.121 278.5,775.5C 379.333,776.832 479.999,776.832 580.5,775.5C 580.833,774.833 581.167,774.167 581.5,773.5C 582.787,769.732 582.787,766.065 581.5,762.5C 581.5,761.833 581.167,761.5 580.5,761.5C 572.833,760.167 565.167,758.833 557.5,757.5C 565.84,757.334 574.173,757.5 582.5,758C 583.956,760.905 585.289,763.905 586.5,767C 585.237,770.058 584.237,773.225 583.5,776.5C 582.5,777 581.5,777.5 580.5,778C 551.335,779.431 522.169,779.597 493,778.5C 423.148,779.271 353.315,779.771 283.5,780C 280.414,779.016 277.581,777.516 275,775.5C 273.89,769.574 274.556,763.908 277,758.5C 284.763,757.904 292.596,757.738 300.5,758C 307.381,755.776 312.214,751.276 315,744.5C 315.333,734.167 315.667,723.833 316,713.5C 317.011,712.663 318.178,712.33 319.5,712.5 Z"/></g>
<g><path style="opacity:0.537" fill="#9a9a9a" d="M 278.5,761.5 C 278.5,762.167 278.5,762.833 278.5,763.5C 276.73,767.713 277.396,771.547 280.5,775C 362.166,775.5 443.833,775.667 525.5,775.5C 543.833,775.5 562.167,775.5 580.5,775.5C 479.999,776.832 379.333,776.832 278.5,775.5C 276.958,773.121 276.291,770.454 276.5,767.5C 276.539,765.048 277.206,763.048 278.5,761.5 Z"/></g>
<g><path style="opacity:0.831" fill="#494949" d="M 581.5,773.5 C 581.167,774.167 580.833,774.833 580.5,775.5C 562.167,775.5 543.833,775.5 525.5,775.5C 544.039,774.809 562.705,774.142 581.5,773.5 Z"/></g>
<g><path style="opacity:0.715" fill="#5a5a5a" d="M 302.5,760.5 C 300.193,762.047 297.527,762.713 294.5,762.5C 289.834,761.832 285.167,761.665 280.5,762C 279.956,762.717 279.289,763.217 278.5,763.5C 278.5,762.833 278.5,762.167 278.5,761.5C 286.414,760.533 294.414,760.199 302.5,760.5 Z"/></g>
<g><path style="opacity:0.925" fill="#4f4f4f" d="M 558.5,760.5 C 565.92,760.203 573.254,760.536 580.5,761.5C 581.167,761.5 581.5,761.833 581.5,762.5C 573.679,761.97 566.012,761.304 558.5,760.5 Z"/></g>
</svg>
